<svg width="40" height="40" viewBox="0 0 40 40" fill="none" xmlns="http://www.w3.org/2000/svg">
  <rect width="40" height="40" rx="20" fill="#E5E7EB"/>
  <path d="M20 12C15.6 12 12 15.6 12 20C12 24.4 15.6 28 20 28C24.4 28 28 24.4 28 20C28 15.6 24.4 12 20 12ZM20 26C16.7 26 14 23.3 14 20C14 16.7 16.7 14 20 14C23.3 14 26 16.7 26 20C26 23.3 23.3 26 20 26Z" fill="#9CA3AF"/>
  <path d="M20 16C17.8 16 16 17.8 16 20C16 22.2 17.8 24 20 24C22.2 24 24 22.2 24 20C24 17.8 22.2 16 20 16Z" fill="#9CA3AF"/>
</svg>
